<?xml version="1.0" encoding="utf-8"?>
<!-- Generator: Adobe Illustrator 16.0.0, SVG Export Plug-In . SVG Version: 6.00 Build 0)  -->
<!DOCTYPE svg PUBLIC "-//W3C//DTD SVG 1.1//EN" "http://www.w3.org/Graphics/SVG/1.1/DTD/svg11.dtd">
<svg version="1.1" xmlns="http://www.w3.org/2000/svg" xmlns:xlink="http://www.w3.org/1999/xlink" x="0px" y="0px"
	 width="247.333px" height="248.667px" viewBox="0 0 247.333 248.667" enable-background="new 0 0 247.333 248.667"
	 xml:space="preserve">
<g id="Skugga">
	<path opacity="0.5" d="M47.277,52.11l-13.68,13.68l0,0c0,0,0,0,0,0c-41.199,41.199-41.199,107.995,0,149.194
		s107.996,41.199,149.194,0.001c0.001-0.001,0.001-0.001,0.001-0.001l0,0l12.929-12.931L47.277,52.11z"/>
</g>
<g id="Knapp">
	<circle fill="#C96FC9" cx="123" cy="125.872" r="105.497"/>
</g>
<g id="Layer_3">
	<path fill="#F18CF4" d="M189.281,103.467c0-18.315-14.848-33.163-33.163-33.163c-17.73,0-32.209,13.914-33.117,31.418
		c-0.907-17.504-15.386-31.418-33.117-31.418c-18.315,0-33.163,14.847-33.163,33.163c0,0-7.067,46.39,66.234,91.916v0.057
		c0.015-0.01,0.03-0.02,0.046-0.029c0.015,0.01,0.031,0.02,0.046,0.029v-0.057C196.348,149.857,189.281,103.467,189.281,103.467z"/>
</g>
<g id="Layer_4" display="none">
	<path display="inline" opacity="0.5" d="M123,20.375c-30.108,0-57.27,12.614-76.491,32.844l0,0
		c17.12-11.992,38.667-18.328,61.157-18.328c58.265,0,105.497,47.232,105.497,105.498c0,22.489-5.518,44.854-17.51,61.975l0,0
		c20.229-19.222,32.844-46.383,32.844-76.491C228.498,67.607,181.265,20.375,123,20.375z"/>
</g>
<g id="Layer_5" display="none">
	<circle display="inline" opacity="0.3" cx="123" cy="125.872" r="105.497"/>
</g>
</svg>
