<?xml version="1.0" encoding="utf-8"?>
<!-- Generator: Adobe Illustrator 16.0.0, SVG Export Plug-In . SVG Version: 6.00 Build 0)  -->
<!DOCTYPE svg PUBLIC "-//W3C//DTD SVG 1.1//EN" "http://www.w3.org/Graphics/SVG/1.1/DTD/svg11.dtd">
<svg version="1.1" xmlns="http://www.w3.org/2000/svg" xmlns:xlink="http://www.w3.org/1999/xlink" x="0px" y="0px"
	 width="258.667px" height="258.667px" viewBox="0 0 258.667 258.667" enable-background="new 0 0 258.667 258.667"
	 xml:space="preserve">
<g id="Layer_7" display="none">
	
		<rect x="-40.033" y="-29.205" display="inline" fill="#E6A7E8" stroke="#FFFFFF" stroke-width="2.4794" stroke-miterlimit="10" width="340" height="340"/>
</g>
<g id="Layer_6">
	<radialGradient id="SVGID_1_" cx="129.3335" cy="129.3335" r="129.333" gradientUnits="userSpaceOnUse">
		<stop  offset="0" style="stop-color:#000000"/>
		<stop  offset="0.8821" style="stop-color:#000000;stop-opacity:0.8"/>
		<stop  offset="1" style="stop-color:#FFFFFF;stop-opacity:0"/>
	</radialGradient>
	<circle fill="url(#SVGID_1_)" cx="129.333" cy="129.333" r="129.333"/>
</g>
<g id="Knapp">
	<circle fill="#C96FC9" cx="130.586" cy="128.334" r="99.75"/>
</g>
<g id="Layer_3">
	<path fill="#F18CF4" d="M193.255,107.149c0-17.317-14.038-31.356-31.356-31.356c-16.765,0-30.455,13.156-31.312,29.707
		c-0.858-16.551-14.548-29.707-31.313-29.707c-17.317,0-31.356,14.039-31.356,31.356c0,0-6.682,43.863,62.626,86.909v0.054
		c0.014-0.01,0.029-0.019,0.043-0.028c0.014,0.01,0.029,0.019,0.043,0.028v-0.054C199.938,151.012,193.255,107.149,193.255,107.149z
		"/>
</g>
<g id="Layer_5">
	
		<radialGradient id="SVGID_2_" cx="130.2471" cy="127.7388" r="100.1965" gradientTransform="matrix(0.9962 0 0 0.9966 0.866 1.0293)" gradientUnits="userSpaceOnUse">
		<stop  offset="0" style="stop-color:#282125;stop-opacity:0"/>
		<stop  offset="1" style="stop-color:#000000;stop-opacity:0.8"/>
	</radialGradient>
	<ellipse fill="url(#SVGID_2_)" cx="130.623" cy="128.332" rx="99.82" ry="99.854"/>
</g>
</svg>
