<?xml version="1.0" encoding="utf-8"?>
<!-- Generator: Adobe Illustrator 16.0.0, SVG Export Plug-In . SVG Version: 6.00 Build 0)  -->
<!DOCTYPE svg PUBLIC "-//W3C//DTD SVG 1.1//EN" "http://www.w3.org/Graphics/SVG/1.1/DTD/svg11.dtd">
<svg version="1.1" id="Layer_1" xmlns="http://www.w3.org/2000/svg" xmlns:xlink="http://www.w3.org/1999/xlink" x="0px" y="0px"
	 width="258.667px" height="258.667px" viewBox="0 0 258.667 258.667" enable-background="new 0 0 258.667 258.667"
	 xml:space="preserve">
<g id="Layer_7" display="none">
	
		<rect x="-40.033" y="-29.205" display="inline" fill="#E6A7E8" stroke="#FFFFFF" stroke-width="2.4794" stroke-miterlimit="10" width="340" height="340"/>
</g>
<g id="Layer_6">
	
		<radialGradient id="SVGID_1_" cx="512.3335" cy="-701.9995" r="125.8342" gradientTransform="matrix(1 0 0 -1 -382.5 -573.666)" gradientUnits="userSpaceOnUse">
		<stop  offset="0" style="stop-color:#000000"/>
		<stop  offset="0.8821" style="stop-color:#000000;stop-opacity:0.6"/>
		<stop  offset="1" style="stop-color:#FFFFFF;stop-opacity:0"/>
	</radialGradient>
	<circle fill="url(#SVGID_1_)" cx="129.833" cy="128.333" r="125.834"/>
</g>
<g id="Knapp">
	<g>
		<circle fill="#729BD6" cx="130.333" cy="128.334" r="105.497"/>
	</g>
</g>
<g id="Layer_2">
	<path fill="#A7EF78" d="M179.953,166.009c-3.108-1.561-5.321-4.181-6.454-7.199c-2.27,0.145-4.604-0.279-6.783-1.372
		c-6.163-3.095-8.861-10.34-6.414-16.642c-4.41-3.889-5.848-10.385-3.087-15.885c1.085-2.162,2.689-3.886,4.575-5.125
		c-0.136-2.252,0.292-4.568,1.378-6.729c2.208-4.401,6.538-7.027,11.127-7.284c0.189-0.551,0.405-1.097,0.675-1.632
		c2.781-5.543,8.921-8.271,14.712-6.988c-3.494-5.224-7.566-9.352-11.191-12.131c-8.788-6.737-24.899-4.394-31.343-2.343
		c-4.079,1.298-10.024,1.891-13.848,2.151c0.705-9.391,13.209-20.166,13.209-20.166c5.858,0.439,5.565-4.687,3.661-6.444
		c-1.903-1.757-4.979,0-4.979,0c-8.893,6.93-13.321,20.956-14.797,26.581c-3.828-0.275-9.49-0.871-13.418-2.121
		c-6.444-2.05-22.556-4.394-31.344,2.343c-8.787,6.737-20.211,21.384-19.625,40.424c0.585,19.041,7.117,43.795,21.969,57.121
		c12.292,11.03,18.846,10.644,18.846,10.644s7.884,0.414,14.768-2.954c5.532-2.707,9.072-2.812,10.252-2.75v0.04
		c0,0,0.079-0.013,0.221-0.024c0.141,0.012,0.219,0.024,0.219,0.024l0.002-0.04c1.18-0.062,4.719,0.043,10.251,2.75
		c6.884,3.368,14.769,2.954,14.769,2.954s6.553,0.387,18.845-10.644c4.634-4.157,8.457-9.429,11.543-15.29
		C185.127,167.63,182.44,167.257,179.953,166.009z"/>
</g>
<g id="Layer_5">
	
		<radialGradient id="SVGID_2_" cx="514.0444" cy="-702.7632" r="106.0593" gradientTransform="matrix(0.9947 0 0 -0.9947 -380.9873 -570.7053)" gradientUnits="userSpaceOnUse">
		<stop  offset="0.8951" style="stop-color:#282125;stop-opacity:0"/>
		<stop  offset="1" style="stop-color:#000000;stop-opacity:0.4"/>
	</radialGradient>
	<ellipse fill="url(#SVGID_2_)" cx="130.333" cy="128.334" rx="105.497" ry="105.497"/>
</g>
</svg>
